<?xml version="1.0" encoding="utf-8"?><svg xmlns="http://www.w3.org/2000/svg" version="1.1" baseProfile="tiny" width="800" height="600" viewBox="0 0 800 600"><g><g stroke="#000000" stroke-width=".98" fill="#FFFFFF"><path d="m262.94 12.09l-23.2-7.09-6.51 8.95-3.09 5.28-1.21 2.04-1.39 2.32-.72 2.43-1.32 4.86-18.35-3.04-.48 2.15-2.77 13.38-.53 1.93-.55 1.99-.69 1.19-1.93 18.66-20.65.84 26.27 55.4 23.03 50.32 5.77 12.53 18.99 40.53 17.06 37.63 3.7 10.63 2.69 10.53 1.71 7.58 1.55 11.52.49 10.34.13 8.12-.17 4.98-1.17 31.02-.41 9.4-2.92 54.07-.74 26.41.01 2.62.43 9.92.65 6.72.87 7.69 3.92 14.73 2.89 10.85 4.36 11.95 3.72 9.79 10.64 28.39.22.59 4.27 11.96 4.53 12.19 2.59 7.22 1.07 4.1 1.83 6.9.05.39 14.04-.58 6.14-19.4 6.49-16.49 9.13.66 4.38-.47 5.9-3.71-.19-5.33 9.61-3.45 3.82 0 4.67-.12 3.33 2.71 4.92 5.05 2.22 3.94 2.7 5.17 7.14 5.41 6.4 2.83 6.77.62.35-.64 3.51-1.86.54-.39 8.11-3.52.84-.18 2.78-.43 4.52 0 5.81 2.12 6.58 1.76 7.29-.18 10.18 4.17 2.71-5.93 5.84 3.42 5.33 0 5.75-7.47.43-5.2-17.72-12.74.7-3.23-4.31-2.64 4.95-11.99 2.4.63 3.99 1.87 4-.94 3.35-3.11 3.52-4.67 3.35-1.09 29.46 9.05 2.78-2.5 4.69-10.8-.42-6.65-5.55-7.06 26.04-81.22-4.05-3.74-2.13-6.44 4.05-3.74 3.62-8.93 5.76-3.74 3.63-7.89 2.13-9.97-3.62-2.91 3.41-9.55 11.94 4.78 3.29-6.34 1.62-3.82-11.3-5.63 1.07-5.82 3.41-11.01 8.32-7.89 9.81-12.88 5.55-27-2.33-12-1.29-8.98 1.07-6.03 3.41-12.88 2.35-6.44 12.15-5.81 3.42-15.99-4.59-1.64.72-18.83-11.14-1.25.09-.44-4.45-.67 4.13-19.53 1.39-7.95.54-1.57-.42-3.12.11-.51-3.04-2.36.86-4.29 3.27-6.65 4.83-1.52.43-13.57 6.4.41 3.13-2.49-1-8.31 1.85-3.74-2-2.07-3.54-1.25 0-3.05 5.4-.27.57-7.21-6.82 0-4.26-1.94 1.99-10.25 6.82-.41.8-11.88-.34-2.49-1.31-2.22-1.47-2.22-.97-3.65.34-2.5 1.6-4.04 4.94-8.92 1.6-3.1 1.85-1.09-22-12.09-2.77 1.6-6.31 1.74-7.06 1.31-4.36.29-2.71.29-2.56-.15-1.97-1.59-6.63-3.47-3.2-1.48-2.05-.97-6.02-.56-4.79-.13-3.74 0-3.13.73-2.94 2.91-3.28 2.31-3.14 1.59-3.57 1.88-4.76 1.01-6.07 1.01-4.76 1.3-3.55 1.58-2.97 2.44-2.96.86-1.64 1.44-1.78.86-.59 1.72-.45 1.87-.74 1.87-1.63 1.01-1.93.57-1.78-.29-1.19-1.29-4.01-1.87-2.23-.86-3.42-.86-2.38.15-2.82 1.44-1.49 2.56.9 4.58-.9 1.87-2.22-.28-2.97.14-3.72 3.03-2.82 2.58-1.77 1.01-3.79.86-13.21 1.73-2.23-.15-1.02-.68-.9-.6-1.48-2-2.81-1.71-2.81-.71-3.09 0-2.66 1-2.36 1.71-7.01 7.09-5.34 4.02-1.21 2.76-2.08 1.42-1.88.32-2.72-.78-3.52-.54-.6-5.1-3.06-4.56-4.02-4.5-1.92-.66-2.46.18-2.28.72-2.28-.66-1.62-1.44-1.62-1.14.24-1.08-1.74-.42-1.44-.18-1.92.36-1.26 1.62-2.52-.48-2.4.36.39 4.15-1.33-.09-.14 2.78-2.47 1.92-3.56 4.31-.58 2.11-3.06.36-2.53-2.17-2.64 1.14-3.08-1.14-6.3-2.85-5.43-1.34-4.03-1.3-5.1-2.96-1.08-1.03-1.4-2.08-4.31-4.85-4.33-3.69-5.89-4.98-4.53-5.11-2.52-5.11.36-22.47-9.81 4.27-4.25-5.17-7.69-7.44 2.45-1.56-12.09-3.83-.98-1.07-5.65-1.92-6.03-.39z" /></g></g></svg>