<?xml version="1.0" encoding="utf-8"?><svg xmlns="http://www.w3.org/2000/svg" version="1.1" baseProfile="tiny" width="800" height="600" viewBox="0 0 800 600"><g><g stroke="#000000" stroke-width=".98" fill="#FFFFFF"><path d="m686.69 33.64l-36.13-.84-24.85 2.82-22.75 4.99-20.67 6.01-16.53 11.01-17.57 16.01-13.43 12.01-11.37 14-16.56 9.01-20.73 5.01-19.69-2-18.66-6-16.56-11.02-.86-1.57-77.75 53.82-.95 3.57-35.8 20.34-12.95 8.5-23.81 17.82-7.42 7-1.6 5.59-5.97 5.21-41.35 20.63-56.84 19.67-7.73.69-7.06-1.8-12.94 3.65-28.29 12.45-7.66.75-30.98 3.69-15.71 2.1-3.15 17.3-12.39 5.83-8.81-.21-15.46-.83-8.9-.48-.78 116.64-1.03 82.84 284.71 14.67 1.12 17.53 134.97 8.13 78.55 29.02 36.17-101.53 236.45 91.54 5.37-44.18-16.4-4.13 8.09-29.87-128.28-63.5 77.9-84.54 40.26-16.54-19.72-44.27 50.81-7.92-3.09-15-1.02-12.99.01-16.72.02-26-2.15-27.31-.99-7.68-6.23-23.02-6.21-19.87-3.1-15.01-6.19-24.01-14.47-18.01-14.46-11-8.26-4-15.49-4-26.68-4z" /></g></g></svg>