<?xml version="1.0" encoding="utf-8"?><svg xmlns="http://www.w3.org/2000/svg" version="1.1" baseProfile="tiny" width="800" height="600" viewBox="0 0 800 600"><g><g stroke="#000000" stroke-width=".98" fill="#FFFFFF"><path d="m83.4 33.64l-6.13-.44-5.53.44-3.44.72-4.04 1.01-5.23 2.18-6.93 3.8-6.47 3.01-14.89 7.51-4.62.38-2.26-.85-2.85 6.27-5.53 11.8-10.48 21.97 69.01 28.54 3.12 9.68-28.13 10.77-3.52-4.1-4.65.69-7.92 4.81 3.44 6.58 18.52 105.55 17.14 11.81 8.55-7.67 31.4 27.45 14.14 8.39 6.09-10.84 5.45 2.02 29.61-22.32 13.44 59.85 9.61-2.94 45.53 4.16 99.4 30.22 143.27 53.46 56.34 34.09 190.4 125.16 56.95-23.66 3.97-2.22 8.84-13.45-61.19-34.38-14.59-19.98-71.5-35.52-61.08-26.83-34.18-22.71-23.46-17.65-76.6-57.11-12.51-6.05-20.85-5.25-40.44-8.68-22.93-11.9-23.97-18.57-38.04-43.18 36.27-103.92-58.82-10.78-.12-5.2-.57-5.8-1.5-5.22-2.45-5.25-2.85-5.2-2.26-4.07-3.3-4.62-2.4-3.03-3.3-3.3-3.44-2.58-3.47-2.38-8.03-5.78-5.47 4.35-5.07 2.6-9.99 3.54-14.51 5.52-12.02 4.32-2.98.58-10.44-.86-18.36-3.5-3.46-1.31-4.22-1.89-5.26-2.6-11.34-5.62-14.54-9.01-13.95-8.19-1.44-.56-10.36-4.23-10.61-2.03z" /></g></g></svg>