<?xml version="1.0" encoding="utf-8"?><svg xmlns="http://www.w3.org/2000/svg" version="1.1" baseProfile="tiny" width="800" height="600" viewBox="0 0 800 600"><g><g stroke="#000000" stroke-width=".98" fill="#FFFFFF"><path d="m292.24 5.41l-53.88-.41-40.81 2.37-24.94 4.17-42.72 8.59-32.01 6.43-.27 31.29-.13 6.95-.23 6.71.91 8.53 1.27 12.95 1.72 13.13-.57 13.99.92 13.36 1.73 9.67 8.41 6.34 11.97 16.12 8.98 14.17 5.53 18.65 3.18 13.23 2.08 15.9 6.21 16.92 0 .01 2.77 15.2 2.42 8.64-.35 8.63 2.77 6.57 5.52 8.29 6.57 5.18 8.76 3.92 6.79 5.06 1.38 8.99 1.72 9.67 4.5 10.37 2.76 9.67 4.15 6.22 8.09 1.3 3.31 1.12 5.53 4.83 6.56 10.71 8.29 10.02 11.75 12.44 6.22 6.22 5.37 13.89 22.16 5.83 20.13-.98 12.54 10.31 13.99 15.17 2.34 16.33 4.66 12.56.64 1.5 1.43 3.82-.69 10.71-2.76 8.98-2.77 10.02 2.07 10.71 0 12.09-7.25 8.29-3.8 5.19-10.71 5.18-5.53 5.87-.96 6.57 4.74 7.06 1.47 2.64 3.82 6.95 4.19.82 3.63 3.2 4.7 2.78 5.12 3.2 3.42 5.55 6.79 1.63 3.12 1.6 2.7-3.56 1.55-6.14.49-7.33 2.54-2.08 3.44.36 4.78 2.28 4.92 4.27 4.69 5.98 4.06.86 6.62-.43 5.13-3.42 5.34.22 6.19-1.93 7.47-4.05 8.12-3.42 5.34-4.27 7.26-3.85 5.98 1.07 5.34.22 6.19-2.57 3.85-1.71 1.28-6.4.85-7.69-1.28-8.54-.43-5.98.86-4.49 2.77-3.2 4.06-2.78 5.98-.42 5.31 1.65 6.86 1.55 5.34 2.99 7.26.64 8.54 1.07 10.9 1.07 9.39-.64 8.97-4.92 9.19-4.27 5.77.89 5.76 1.25 10.46 1.07 5.34.85 6.62-2.14 7.9-2.34 6.41-2.14 5.12-.43 4.7 3.42 2.57 5.77 5.55-.65 5.55-.64 4.27-.85 3.85 5.98 4.27 7.9 5.76 7.9 7.69 7.26 3.85 3.21 5.12 1.49 6.09 1.08 18.41 7.14.31-6.66-.22-13.09-.29-14.78.5-8.6 14.02-111.99 1.56-15.72 5.74-43.4 3.45-24.04 1.1-6.45 16.71-102.16-24.21-21.41-10.91-9.64-48.36-31.67-39.52-25.21-46.57-29.57-45.13-28.33-36.11-18.89-8.34-4.31-38.22-20.82-40.45-16.26-64.89-12.69-7.8-.06z" /></g></g></svg>