<?xml version="1.0" encoding="utf-8"?><svg xmlns="http://www.w3.org/2000/svg" version="1.1" baseProfile="tiny" width="800" height="600" viewBox="0 0 800 600"><g><g stroke="#000000" stroke-width=".98" fill="#FFFFFF"><path d="m399.96 54.94l-15.47-49.94-5.18 1.17-8.39 1.66-8.07 2.29-24.59 5.83-27.85 5.43-16.86 2.29-10.35 2.8 7.11 26.91 6.08 25.64 6.86 26.91 5.77 24.49 3.9 18.66 3.49 15.12-9.45 21.31-17.6 3.6-55.24 10.37-29.36 6.2-29.77 7.22-20.15 2.52-16.71.15.83 8.47 19.32 8.3-1.64 9.22-4.86 18.49-.11.34-6.03 30.75-5.38-.71-3.3 9.34-.84 9.73-3.6 38.29-17.46 97.22-2.85 19.46.56 17.36 16.01 20.27 42.28 50.21 11.24-.39 16.07-1.63 20.61-1.87 28.22-1.17 38.92 11.9 10.12.64 9.47 3.22 1.64 1.8 20.28 6.42-4.11 2.62 12.9 12.49 7.13 8.66 16.45-7.16.09-17.5.68-25.14-.53-25.22-.3-21.33-1.7-85.84 32.6-9.54.12-.03 17.7-4.52 10.86.47 65.42 13.84 7.68 1.57 37.34 8.91 2.54.74 18.34-40.21 3.52-6.08 13.38-25.5 8.2-17.13 9.49-23.7 6.39-13.57 5.55-9.47 2.54-3.16 6.57-10.95 2.32-3.71 2.43-2.91 1.84-2.75 6.77-9.64 15.13-24.13 11.18-21.38 4.51-10.97 2.04-4.87 1.14-2.04 1.7-5.21 1.19-7.41 1.78-10.62 1-4.18 13-17.45 10.02-18.06 5.26-12.17-16.77-1.16-30.31 2.55-31.84 2.69-11.63.91-5.42.69-21.43 2.96-10.27 1.55-7.82 1.01-9.23 1.3-8.44 1.02-10.38 1.55-22 2.72-17.48 3.19-20.67 3.78-14.65 1.74-21.06 5.64-4.27-14.89-3.88-12.46-10.85-37.92-9.43-28.91z" /></g></g></svg>