<?xml version="1.0" encoding="utf-8"?><svg xmlns="http://www.w3.org/2000/svg" version="1.1" baseProfile="tiny" width="800" height="600" viewBox="0 0 800 600"><g><g stroke="#000000" stroke-width=".98" fill="#FFFFFF"><path d="m195.16 17.89l-6.28-12.89-14.45 7.44-8.52 4.8-8.73 4.89-13.24 4.14 50.74 83.64 30.1 66.92-41.93 21.71-33.23 17.46-35.24 20.18-66.6 30.23 32.13 54.51 13 25.15 10.18 19.83 5.45 10.38 14.33 26.27 16.05 27.76 7.85 13.96 9.12 17.27 17.79 34.13 16.21 32.87 4.49-.85 9.42-3.66 10.9-2.79 15.65-1.9 37.57-3.75 3.44 79.41 18.81-.43 20.79-.83-1.8-61.89-1-19.91 20.51-2.95 8.6-22.66 35.63 15.05 25.33-46 15.85-27.62 23.32 9.13 21.03 7.14 28.47 9.67 24.44 4.55 25.11.92 36.68 4.02 17.49 2.77 22.33 3.76 16.1 2 23.5 3.74 20.21 3.47 4.47-49.75 2.58-22.72.36-6.55 1.28-12.86 4.34-39.78 4.23-25.24 2.91-19.01 4.46-19.06 12.01 1.11 13.86 1.46 11.05-.3 7.72-1.18 10.19-1.56-8.19-9.65-4.94-8.63-3.22-5.04-3.64-4.62-4.7-3.56-4.28-3.14-12.47-6.73-6.7-4.19-6.28-2.99-6.52-3.21-12.61-6.02-11.19-3.7-7.21-1.68-8.7-1.73-3.74-.59-16.64-1.42-8.35-.15-16.03-.29-10.32 0-10.07-.19-12.09.8-28.15.17-6.62-.47-33.04-4.49-24.26-1.18-28.17-1.69-2.82-.36-33.99-1.29-9.32-.58-18.69-3.49-18.43-3 7.62-40.01 1.39-9.27-3.81-2.84 6.5-15.22 5.97-21.39 11.04-12.3-4.17-31.03-3.02-1.06-8.59.3-5.74 3.09-3.83.93-3.19-.93-2.54-2.47-6.34-6.18-33.93-19.06-19.23-11.82-36.55 56-15.87 23.18-4.12-.98-4.09-2.29-5.27-3.35-3.45-3.73-2.68-3.61-4.78-7.23-4.87-7.79-4.93-9.96-9.88-19.32-7.63-15.2-5.94-11.69-3.75-7.26z" /></g></g></svg>