<?xml version="1.0" encoding="utf-8"?><svg xmlns="http://www.w3.org/2000/svg" version="1.1" baseProfile="tiny" width="800" height="600" viewBox="0 0 800 600"><g><g stroke="#000000" stroke-width=".98" fill="#FFFFFF"><path d="m300.63 7.43l.99 4.56 4.4 20.25 5.75 30.33 4.38 24.78 5.53 22.96 5.08 22.52-66.21 21.81-26.89 49.41 20.73 28.19-7.05 4.38 8.88 55.84 4.46 27.64 10.09 51.96-6.66 1-5.27.11-3.44-.11-2.52-.11-9.64 5.62-8.65 20.67-9.18 18.73-8.59 5.86 6.66 5.14 7.31 10.26 8.94 13.42 11.03 12.66 6.93 13.95 6.16 14.63 4.6 23.69 1.62 19.35 3.6 24.52 6.97 13.01 10.6 13.43 12.24 7.11 17.96-.39 13.46-1.59 13.88-14.25 3.2-4.84 10.75-16.46 5.28-20.86.4-23.28 2.45-20.54 1.63-22.9 6.12-18.17 8.58-11.84 12.39-11.26 10.92-9.9 12.74-8.84 12.04-9.52 5.51-9.51.03-.04.26-.46.7-1.15 14.67-26.06 5.12-20.12.76-18.55-.04-18.43-1.12-20.17.36-13.06 4.37-12.71 4.04-9.43 9.09-11.1 12.79-11.26 8.77-7.39 13.55-9.16 17.19-7.6 14.97-8.49 13.51-7.77 10.59-13.43 8.4-15.55 4.02-10.6.36-15.2-1.46-11.66-5.11-13.09-5.84-14.14-12.84-14.5-12.46-7.44-20.51-10.25-24.73-4.58-18.95-.58-15.32-4.36-17.83-4.13-17.25-4.47-18.09-9.63-16.99-8.78-16.74-8.77-6.27-11.74-6.06 29.64-66.1-27.21z" /></g></g></svg>