<?xml version="1.0" encoding="utf-8"?><svg xmlns="http://www.w3.org/2000/svg" version="1.1" baseProfile="tiny" width="800" height="600" viewBox="0 0 800 600"><g><g stroke="#000000" stroke-width=".98" fill="#FFFFFF"><path d="m669.77 14.9l-.83-9.9-32.91 1.83-13.64 3.74-7.32 2.5-8.06 2.63-11.24 1.6-6.26 2.1-9.17 4.15-12.39 9.63-12.67 6.71-21.88 3.38-59.37 82.06-37.96-47.08-39.56-33.09-6.68 2.51-8.52 7.53-26.49 69.53-.56 11.88 1.55 12.88-2.26 3.7-15.55-3.57-36.41 8.96-6.08-7.26-7.14 3.14-3.02 1.94-14.69 7.78-6.08 6.31 14.34 10.6-6.5 12.19-2.61 15.63-1.31 14.89.34 8.11 1.36 2.72 3.09 2.1.46 8.78-.9 3.3-4.5 9.24-9.61 12.61 5.24 3.86-7.43 9.17-6.57-4.94-6.42-2.36-8.11 13.74 4.49 2.99-7.36 11.55 6.07 4.05.83 6.34 7.41-.49 12.89-2.78 17.65.04 44.1 1.6 26.67-4.11-76.82 91.49-10.16 13.87-12.05 16.11-7.72 10.14-13.13 11.58-14.17 9.62-10.84 4.84-16.07 6.41-8.58 4.68-9.63 5.94-6.16 4.83-7.06 7.26-5.5 6.23-3.61 5.6-4.24 7.95-1.92 3.52-2.62 6.01-1.75 6.81-3.26 16.34-4.71 31.62 24.04-2.22 20.18-12.14 8.51-18.59 42.54 12.15 5.67-23.39 199.95 59.02 26.2-15.67-16.36-22.25 21.23-39 52.26-17.22-4.01-17.77-4.36-18.13-3.46-19.56-4.54-23.94-3.47-15.98-.79-3.6 52.18 21.48 4.79-23.4-7.14-12.63-1.91-18.67 3.14-12.68 1.88-9.89 9.03-41.87 1.52-7.31 2.63-12.44 1.38-7.58 7.74-15.25 6.72-13.19 7.56-18.64 12.16-30.32 8.47-21.49 6.54-16.4 3.87-10.43 4.42-11.73 18.41-22.45 25.19-45.47 11.43-23.27-1.02-3.21 0-24.26-1.01-5.88z" /></g></g></svg>