<?xml version="1.0" encoding="utf-8"?><svg xmlns="http://www.w3.org/2000/svg" version="1.1" baseProfile="tiny" width="800" height="600" viewBox="0 0 800 600"><g><g stroke="#000000" stroke-width=".98" fill="#FFFFFF"><path d="m595.8 5l0 .01-.1 1.6.06 2.94.04 2.54-.06 1.3-.19 1.45-.29 1.59-2.02-.65-2.42-1.17-2.54-.9-1.03-.18-13.96-.97.67 11.25 1.33-.04 1.22.12 1.29.15 1.31.3 1.05.17 1.15.12 1.69.15 2.15.33 2.14.46 2.51.21 2.36.22-.79 2.33-3.09.77-6.03 2.17-.96.26-1.54.42-8.87 3.19-2.42 1.07-4.14 1.38-2.64 1.07-3.32-1.52-2.1 3.51-.54.34-.4.86-.74 1.83-8.32 23.4-3.68 6.95 8.78 3.3 7.05 2.27-2.35 7.25-2.07-1.1-1.77-.03-1.84-.15-1.61-.08-1.76 8.28-7.83-2.7-4.41-.88-3.58-1.24-1.98-.51-3 3.07-5.91 4.17-4.68 3.8-2.39 1.12-2.7 1.02-3.64 1.38-5.64 2.39-5.45 2.87-2.05 1.11-6.61-5.96-6.66-6.04-3.26-2.66-11.14 12.74-8.04-2.08-6.61-2.13-1.17 3.18-11.8-1.28-4.09-.68-3.24-.66-3.58-2.39-5.9 2.53-14.47.46-4.4.04 5.07 9.24 11 17.85 5.66 20.39 6.54 34.8.96 5.12 11.22 30.04 7.06 26.12 12.2 22.99 2.93-.5-.22 2.63.25 2.01.35 1.89.5 2.18 1.04 3.45 1.94 5.42 1.88 5.21 2.38 6.74 1.08 2.95.91 2.39-2.87 7.03-2.71 2.61-.29.97-.1 1.35.1 1.45-.29 1.55-.68 1.06-1.35.68-1.16.19-1.55 0-1.16.2-.96-.1-1.16.58-.97.97-1.49 1-.54 1.18-.24 1.49 0 2.19-.63 1.49-1.33 1.26-1.88.78-2.04 1.73-1.65 1.41-1.17.94-1.81.47-1.64-.47-1.34-.71-.78-.39-1.88-.55-2.2.16-2.59 1.88-5.72 3.53-2.19 1.02-2.36.78-2.66 1.18-2.9-.32-2.12-.94-1.8-1.72-1.26-1.57-2.55-1.03-11.64-.07-3.53.79-2.9 1.17-1.18 1.34-1.33 1.09-1.57.79-1.64.39-1.89.39-1.41.55-1.33 1.57-.55 1.41-.47 1.65-1.02.62-1.25.79-1.65.31-2.04.32-2.59-.16-2.98.31-1.72.47-1.1 1.26-.31 1.96 0 2.35-.71 1.65-1.1.62-1.25.79-.86 1.25-.55.79.16 1.35 1.25 2.49.39 1.88.08 2.51-.47 2.19-1.88 7.14-.55 3.53.83 1.82.41 1.23-.69 1.42-1.02 1.1-2.51 1.96-1.87 1.29-2.13 1.92-1.18 1.25-.62.87-.39 1.17-.71.71.23 1.1-.15.94-.86.63-1.1.15-.86.55-.63.78-.79 1.02 0 1.1-.62 1.1-1.34.94-1.88 1.1-2.51.86-2.58.94-1.73.55-1.72.63-1.57.86-1.26.47-1.02-.39-1.49-.86-1.41-1.34-1.02-.23-1.02-.08-1.02.31-5.72 2.83-2.82 1.25-1.41.31-3.77.4-1.33.07-1.57.08-1.57.32-4.86 2.04-1.25.7-1.1.39-1.25.4-1.26 1.01-1.18 1.18-1.8 1.96-2.09 2.63-1.84 2.3-4.85 6.99-.86.7-1.41.55-2.04.94-2.56 1.16-1.52.88-1.13 1.13-2.91 3.87-.59.41-.87.18-1.01-.1-2.64-1.03-3.94-2.58-9.57-5.41-.86-.31-1.18 0-7.45 1.26-1.12-.07-.92-.4-2.55-3.15-1.52-1.89-1.18-1.39-1.09-.62-.95.07-.94.3-2.25.64-2.43.85-2.48.52-3.17.77-2.75.37-1.81.5-.78.59-.59.72-.25 1.1-.41 2.47-.41.44-.7.24-1.57-.11-1.64-.28-1.63-.2-1.51.33-.98.46-.72.92-.59.91-.46 1.25-.59.98-.52.78-.98.79-1.11.06-1.18-.06-1.25.33-1.04.72-1.12 1.44-.98 1.7-1.35 1.59-2.03 2.04-2.21 1.56-2.69 1.57-3.03 1.51-3.09 1.09-3.14.59-3.6.65-2.29.85-3.14 2.36-1.38 1.44-3.12 2.42-1.52 2.05-1.6 2.66-.99 1.25-.61.56-.8.46-.94-.02-2.86-.61-3.06-.24-7.08-.5-5.53 0-1.97.16-1.96.34-.51.32-.32.51-.49 4.33-.47 5.1-.52.77-.86.17-7.69-1.06-.7.2-.43.55.28 2.87-.35 2.03-1.96-.14-2.37.21-1.21-.08-7.16-.72-1.28-.26-1.2.01-.7 1.05-1.47 4.06-.66.7-.73.34-1.07.01-.96-.29-3.64-.07-1.61.49-2.27 1.81-1.07.83-.55.42-1.45 1.13 51.67 97.29 6.72-5.67.76-.9.61-.66 2.71-2.71 3.91-2.6.8-.57 2.67-1.88 2.16-1.76.95-.74 1.11-1.48.77-.55.01-.02 1.73-1.38 1.06-.91 1.83-1.53 1.11-.83 3.72-2.64 4.22-3.27 1.73-1.36 4.87-3.93 3.92-2.78 2.95-1.52 2.01-.89 7.59-3.2 1.66-.71 9.55-3.88 11.46-4.7 4.28-2.01 2.81-1.56 2.76-1.72 4.59-2.95 5.23-3.38 1.77-1.21 1.16-.68 2.05-1.58 2.26-2.01 2.05-2.49 1.12-1.72 1.8-3.38 3.99-8.54.96-2.06.59-1.11 1.02-1.97 2.06-3.12 3.36-4.08 2.93-2.97 5.86-5.9 2.71-2.81 8.63-8.58 9.69-8.8 6.92-6.26 2.08-1.87 7.97-7.41.47-.5 4.85-4.1 5.38-4.16 1.7-1.26 3.23-1.92 3.01-1.7 2.58-1.27 2.41-.95 1.26-.5 1.59-.57 4.44-1.26 3.11-.84 2.3-.49 3.76-.63 5.59-.59 4.28-.17 3.89.14 2.95.16 9.85.62 6.71.44 5.37.33 6.61.5 2.81.21 6.79.41 14.98 1.01 12.86.9 1.84.17 5.65.4 3.77-.17.88-.06 1.97-.39 1.41-.47 1.42-.73 1.53-.82 1.84-1.25 1.17-.84 1.21-.98 1.23-1.19 1.19-1.52 1.77-2.48 1.61-2.72 1.72-3.23.67-1.4 2.09.31 1.64.39 1.63.54 1.28.42 1.78.81 2.21-1.22 1.3-1.07 1.67-.72 17.78-.11 3.17.16 45.12.49.57-7.41 1.56-15.63-1.34-8.7 4.69-8.26 12.73-6.03 8.63-5.34-2.54-7.62 6.77-3.11-4.15-44.41 2.33-1.98-.67-2.07-.49-2.34-.41-2.1-.31-1.88-.12-1.07-.09-1.74.07-2.15.08-2.27.21-1.72.37-2.85 1.06-4.11.87-2.59.88-1.86 1.27-2.79 1.13-1.86 1.9-2.84 1.29-1.63 2.28-2.49 2.61-2.41 3.13-2.46 3.94-2.65 4.53-2.66 5.87-3.12 4.56-2.58 2.59-1.71 2.47-1.82 2.42-2.26 2.11-2.42 1.47-1.72 1.6-2.44 1.5-2.93.81-1.75.68-1.74.43-1.42.32-1.58.73-3.93 1.56-10.45.93-4.68.5-1.96.75-1.72.55-1.01 1.22-2.27 1.03-1.61 1.58-1.78 2.02-2.08 1.76-1.39 2.76-1.7 2.46-1.34 4.61-1.84 3.1-1.38 4.06-2.76 3.76-3.32 2.22-2.9 3.45-4.62 2.91-3.97 22.01-26.21-7.64 1.18-12.64-.46-5.06-.01-3.69.79-2.12.14-.24-1.81-1.74-1.16 2.11-3.31-1.28-.86 2.32-3.94 1.84.68 1.88 1.41 2.13-2.62-1.5-1.11 2.75-3.61 1.29-2.65.26-.94-.14-2.52-.88-.6-.39-.78-.1-2.32.38-4.27.75-4.48 1.86-3.49-4.11-3.04 1.74-1.8 4.21-2.23.87-.56 2.04-.9 1.74 2.08 10.43-2.56 4.46 1.02.65-1.06-.45-3.69.16-3.4.24-5.84-1.49-5.32-2.98-3.7-1.62-2.17-3.4-2.69-3.32-2.11-2.35-1.44-1.1-.67-3.61-1.55-9.29-3.1-11.25-3.76-3.26-.78-.15-1.01-.26-.92-.32-.77-.44-.75-.53-.76-.49-.57-.5-.59-.46-.61-.38-.56-.37-.55-.37-.63-.3-.63-.34-.76-.66-1.88-.8-1.9-.64-1.28-.69-1.06-.82-1.29-1.04-1.37-.88-1.01-10.61-15.19-6.35-4.15-2.85-1.79-3.52-2.12-28.71-15.29z" /></g></g></svg>