<?xml version="1.0" encoding="utf-8"?><svg xmlns="http://www.w3.org/2000/svg" version="1.1" baseProfile="tiny" width="800" height="600" viewBox="0 0 800 600"><g><g stroke="#000000" stroke-width=".98" fill="#FFFFFF"><path d="m499.55 186.76l-9.97-5.71-24.73-8.46.92-.84 15.9-51.57 4.22-38.84-2.15-7.72-5.55-10.69-59.34-3.51-.55 5.27-.51-.05-.98 18.39-2.03 14.1-6.39 26.67-10.5 30.57-7.39 16.14-8.64 16.19-18.78 27.7-21.78 34.62-21.94-14.45-11.07 11.93-5.74 1.97-20.46 36.52-177.25 31.05-19.96-9.23-2.6 5.46 41.59 39.01-19.96 42.3-49.85-29.55-46 6.59-1.77 6.56-1.29 3.81 41.81 13.39 7.08 3.23 6.06 3.35 36.99 41.8 3.62 3.46 26.86 20.88 24.25 9.5 6.06 3.34 14.37 6.74 26.33 16.78 6.95 6.42 43.37 21.65 5.8 3.53 5.05 3.03 4.16 2.49.12-.21 71.72-127.37 17.23-8.15 45.69-71.39 16.03-1.16 59.32-55.88 9.82 4.66 1.8 59.75 16.44 26.77-14.43 64.99 57.01 28.23 6.01 5.04 20.59 38.9 2.66 3.06 7.46 7.13 5.01 3.54 45.29 9.12 5.56-.2 16.83-6.59 5.91.67 13.23 5.44 6.61 1.16 29.16-3.39 3.61-1.65 3.3-3.88 1.71-3.59.1-5.53 1.4-14.75-4.51-13.58 0-8.24 80.56-46.08-34.54-31.09-39.16-33.56-31.61-28.67-38.96-34.41-71.32-66.7-26.5-15.69-53.36-30.52z" /></g></g></svg>