<?xml version="1.0" encoding="utf-8"?><svg xmlns="http://www.w3.org/2000/svg" version="1.1" baseProfile="tiny" width="800" height="600" viewBox="0 0 800 600"><g><g stroke="#000000" stroke-width=".98" fill="#FFFFFF"><path d="m346.22 261.54l3.29-10.24 13.78-37.29 3.64-12.93 7.12-21.51 3.61-12.42 4.1-12.55 3.23-12.32 3.51-20.5.79-5.78.27-3.71.57-11.47 2.47-31.6 14.32-64.22-4.45 2.63-5.23.74-63.17 32.56-48.68 6.67-28.62-9.63-55.23 31.27-7.47 3.04.22 1.61-.18 3.19-.51 3.59-1.54 3.46-2.3 3.71-2.37 2.22-4.4 3.83-4.47 2.84-6.27 3.46-11.41 4.78-9.09 4.55-5.35 2.96-4.85 2.96-3.44 2.46-3.44 4.28-2.55 3.33-1.46 2.79-.96 1.78-2.94 7.72-3.19 10.29-.64 3.58.13 2.59.38 2.83.89 2.22 5.52.89 18.28 2.47 12 1.36 6.79 1.01 10.49 1.32 6.44.51 6.62.51 14.2 2.74 16.12 3.81 13.84 5.06 21.07 5.68 11.35 3.21 8.26 3.95 3.92 2.33 1.09 2.95.66 5.08-.87 4.86-1.1 5.28-3.39 9.78-4.7 11.28-11.78 29.1-1.47 9.25.73 7.53 1.48 5.69 4.77 3.91 8.09 1.78 4.77.54 5.02.02 5.02.85 4.36 1.06 6.55 1.18 7.2.64 7.41.84 6.98 1.7 6.76 1.26 6.77 2.12 5.18 2.12 3.92 2.74 4.8 2.96 4.8 3.58 4.41 4.46 4.36 4.22 5.67 5.91 4.36 5.27 3.7 4.43 4.14 5.71 6.54 6.14 4.15 4.45 3.7 4.42 3.71 4.21 6.33 4.89 3.71 2.33 4.72 4.05 5.01 4.01 5.24 4.6 5.66 4.43 5.21 4.64 4.9 5.97 32.89 43.27 15.01 10.16 10.54 3.86 4.69-.75 8.61.37 2.09 1.04 8.47 7.88 10.45 13.5 4.08 7.69 5.53 9.91 18.75 23.93 63.82 65.75 4.62-9.03 49.72 21.02-66.01-97.43 7.3-8.82-242.12-201.83-32.22-20.46 2.2-4.92z" /></g></g></svg>