<?xml version="1.0" encoding="utf-8"?><svg xmlns="http://www.w3.org/2000/svg" version="1.1" baseProfile="tiny" width="800" height="600" viewBox="0 0 800 600"><g><g stroke="#000000" stroke-width=".98" fill="#FFFFFF"><path d="m395.64 39.34l-20.04-16.33-3-13.2-3.12-4.81-12.39 18.81-1.58 2.2-11.04 14.32-6.82 7.91-10.78 13.98-3.7 4.34-3.29 4.57-2.47 3.79-4.12 4.38-3.71 2.8-13.12 6.94-5.57 1.42-4.11.61-4.52-.38-11.81.07-3.58-.04-10.18.89-7.42 1.75-4.11 1.07-7.36 3.26-5.08 3.41-3.82 3.33-7.43 9.07-1.62 2.04-4.24 5.99-1.41 4.58-1.93 10.94.64 8.88 1.34 6.53 2.32 11.31.54 2.32 1.07 3.97 2.33 7.5 1.55 7 4.91 19.22 2.16 10.92 3.87 14.54 1.88 5.06 1.24 3.09 2.39 5.35 2.46 7.45 12.88-.79 11.3 1.72 9.63 2.48 7.68 1.33 15.48-1.21 19.59-.62 19.14.74-.39 13.62-.5 14.8-.59 16.78.41 16.61-1.71 2.32.02 7.81.69 18.73.01 25.54 4.33 29.25 15.4 23.72 34.92 17.13-1.78 15.17-2.62 26.09 23.21-1.26 1.52-.26 3.19-.19.38 5.29 30 32.42-8.22 21.5-1.18 3.56-6.96 20.62 63.93-9.16 69.26 41.07 27.74-58.78-57.8-54.2 3.62-7.6 27.73 12.83 5.16-21.51-59.53-22.61-4.56-4.06-14.16-18.04-8.53-11.55 33.08-38.55-1.56-6.88 12.65-12.53 20.69 1.63 6.39.41 3.38.58 8.77-6.46-.74-5.12-23.38-5.15-36.81-4.21 1.36-11.82-32.12-5.37-9.1-9.8 6.18-22.4-29.83-3.61-.67-154.91.63-48.88-42.94-37.07z" /></g></g></svg>