<?xml version="1.0" encoding="utf-8"?><svg xmlns="http://www.w3.org/2000/svg" version="1.1" baseProfile="tiny" width="800" height="600" viewBox="0 0 800 600"><g><g stroke="#000000" stroke-width=".98" fill="#FFFFFF"><path d="m616.69 32.43l-.79-3.42-1.01 3.62-.61 2.16-16.83 2.3-19.22 10.31-16.78 5.2-28.83-.46-27.71 53.91-54.5 30.52-19.38 27.28-1.09 11.35-2 1.82-23.33 6.06-8.45.99-20.71-8.39-10.66-24.19-11.89-10.16-18.89-3.34-16.21 3.41-23.74 13.1-16.97 20.51-19.26 32.92-11.98 27.83-12.55 20.22-13.13 12.98-21.81 17.17-94.4 33.73-35.28 17.17-30.22 18.28-16.61 23.47-7.53 15.5-9.32 17 43.97 27.76 16.85-15.84 6.93 7.17 13.86-7.87 11.83 15.73 31.3 65.35 58.78 1.15 165.03 30.42 95.06 35.84 36.62-43.63 17.76 9.78 6.6-8.08 4.26-4.81.59-.72 35.92-39.54 59.86 16.59 27.49 15.94-1.84-5.01-.87-6.14-.31-5.89 1.44-8.03 7.16-23.06 6.54-17.17 2.22-4.33 3.28-6.26 5.73-7.48 7.73-9.61 7.74-5.54 10.88-6.65 12.03-6.64 20.41-10.23 25.64-10.73 14.09-7.78 10.03-6.37 9.9-8.61 5.31-4.98 5.17-8.33 3.46-7.79 1.16-8.07.39-7.16-1.2-7.17-3.88-11.47-5.08-9.86-9.16-8.56-8.04-6.1-11.88-6.37-11.89-4.7-14.62-4.17-12.32-.84-10.89.52-9.47 3.03-9.47 4.72-27.2 18.73-21.06 12.11-12.59-23.98-5.13-14.11-4.08-13.39-8.17-21.43-2.8-10.65-2.8-12.28-.01-8.34 2.6-8.73 4.72-11.82 1.77-3.1 6.1-12.93 3.87-10.79 3-12.05 2.14-16.23 2.57-18.33 1.72-17.2 1.51-8.79 1.08-7.72 0-8.35-1.94-7.7-3.66-6.67-5.6-9.18-6.45-8.33z" /></g></g></svg>