<?xml version="1.0" encoding="utf-8"?><svg xmlns="http://www.w3.org/2000/svg" version="1.1" baseProfile="tiny" width="800" height="600" viewBox="0 0 800 600"><g><g stroke="#000000" stroke-width=".98" fill="#FFFFFF"><path d="m444.89 9.44l-19.83-4.44.19 18.92-1.07 12.82-.66 12.36-.02.26-.44 8.67-.01.25-1.84 12.44-.05.34-2.57 9.64-.06.21-1.23 8.66-2.27 10.5-3.08 9.34-4.85-.55-4.44 10.28-8.46 15.24-10.96 14.73-.85 3.52-1.5 8.97-1 6.25-1.44 4.39-.96 1.72-1.72 4.11-3.81 9.27-9.44 18.04-12.77 20.36-5.71 8.14-1.55 2.32-2.05 2.45-1.96 3.13-5.54 9.25-2.14 2.67-4.69 7.99-5.4 11.45-8 20-6.92 14.46-11.3 21.52-2.97 5.13-15.48 33.94-2.14-.63-31.52-7.52-6.47-1.33-55.22-11.67-9.16-.4-14.94 3.81-.1.03-27.51 8.05 1.43 72.45.25 18 .45 21.28-.57 21.22-.08 14.76-.51 31.81 3.58 7.24 6.4 7.24 8.34 7.03 6.13 5.24 6.1 6.86 1.99 2.94 1.52 1.47 7.22 4.19 5.71 1.83 7.68 1.9 8.92 4.03 4.36 1.61 3.74-1.61 3.58 3.07 4.34-.51.82-2.99 5.04-6.1 3.48-2.72.21-3.93 1.88.13-.56-5.88 3.4-.51 3.57.68 1.78-2.29 2.72-.51 2.04.25 2.46.6-.34 1.52 2.29 1.62 2.3 2.04 3.23.93 3.22-1.02 3.49-.25 2.72.93 5.69 6.37 4.33 6.46.85 7.22 4.98.77 3.86 1.1 2.66-.45 2.94-2.01 1.7-3.91 7.56-5.69 9.93-10.03 3.34-2.43 3.76-1.41 4.38 0 3.98 1 3.98 2.42 2.09 2.83 1.27.85 1.45.97 3.15.2 18.7-2.44 5.36-1.22 2.52-1.42 3.99-3.66 5.26-4.28 4.2-.21 3.15.4 1.27-2.64-1.27-6.5 2.11-3.62 3.99-2.03 3.37-.21 4.84 1.21 3.15 1.22 5.68 2.64 1.69 1.83 2.52.41 2.73-.81 2.31-1.42 1.05-2.65.63-2.64.84-2.44 2.51-1.22 2.32-2.04 4.2-1.22 4.2-3.45 5.03-2.23 6.73-1.84 8.59-1.44 6.74-1.43 5.06-2.65 4.44-2.25 4.65-3.28 4.15-4.11 4.44-1.03 5.29-.02 6.79.2 8.51.79 2.91 1.38 4.53 2.08 9.38 4.92 2.78 2.25 3.63.21 3.84-.41 6.17-.41 10-1.85 8.93-2.47 3.91-2.26 31.15 17.11.44-.26 10.3 4.32 5.1-9.75 1.06-1.77 1.81-4.41-3.01-3.09-7.4-4.99 5.07-8.55-.4-2.27-1.93-1.57-2.25-1.02-3.46-1.02-1.69-1.02.8-.87 1.21-1.72-.08-2.43-3.3-2.12-6.6-1.88-2.65-1.96-8.86-4.01-1.44-1.8 1.12-2.67-.72-1.56-2.66 0-1.77.54-.96.79-1.05-1.73-1.61-.39-1.05-1.18.09-2.04-2.5-1.02-.64-1.64 3.3-6.9 2.98-2.98-.16-20.62 3.23-16.78-4.19-6.91 1.05-7.68 3.79-5.17 2.97-.87 2.74-2.9 4.99-4.31 7.95-7.57 17.64-22.62 19.89-69.83 12.21-52.07 12.09-44.35 15.1-48.52 11.96-46.8 8.33-30.34-13.2-4.66-5.54-1.91-5.2-1.56-78.99-29.48-11.17-4.71.38-1.01-9.1-3.62-20.11-5.93-18.71-4.85-31.51-7.93-17.16-2.07-15.82-2.71z" /></g></g></svg>