<?xml version="1.0" encoding="utf-8"?><svg xmlns="http://www.w3.org/2000/svg" version="1.1" baseProfile="tiny" width="800" height="600" viewBox="0 0 800 600"><g><g stroke="#000000" stroke-width=".98" fill="#FFFFFF"><path d="m564.44 54l-52.24-49-36.98 38.49-10.92 5.42-15.59 4.9-26.99 4.03-2.98 12.4-325.13 86.05 2.48 13.05 8.5 24.57 9.36 29.61 4.21 13.32 10.22 34.24 24.13 89.18 25.2 81.33 15.35 47.1 17.68 61.76 6.31 20.3 6.97 24.25 34.29-9.19 23.86-2.82 33.68-6.17 28.47-5.2 35.83-4.42 16.9-2.52 13.75-1.68 15.03-2.11 12.74-1.64 16.72-2.52 34.91-4.83 8.83-1.12 18.95-1.48 51.86-4.38 49.37-4.16 27.31 1.89 9.35 1.05 5.95-18.01 4.38-20.28 2.38-16.7.11-.42 4.97-18.61.09-.64 3.55-24.02.02-.47.86-16.75.03-.49 1.27-23.86 2.07-24.73-.36-36.52-.65-16.01 1.29-13.36.47-7.49.16-17.92.21-8.81 2.76-24.53-.01-23.84-2.38-25.29 5.27-25.09 5.29-32.82 6.47-30.82 2.72-17.03 3.6-36.4-20.44 18.68-16.92 11.7-11.05 10.4-14.41-2.25-6.51-3.01-20.5-16.46-15.22-10.02-22.4-9.58-14.5-8.25z" /></g></g></svg>