<?xml version="1.0" encoding="utf-8"?><svg xmlns="http://www.w3.org/2000/svg" version="1.1" baseProfile="tiny" width="800" height="600" viewBox="0 0 800 600"><g><g stroke="#000000" stroke-width=".98" fill="#FFFFFF"><path d="m373.82 468.18l13.08-15.78 25.11-17.78 42.75-2.76 4.56 14.35 26.8 29.65 47.86 45.38 42.17 54.62 20.82 11.65 27.52 7.09 22 .4 16.84-9.29 25.08-36.08-31.34-4.24-17.19-7.7-14.09-8.87-6.81-5.68-4.52-6.92-1.88-7.63.13-16.45 3.84-23.16 5.87-22.64 5.26-14.49 2.63-18.47.06-10.11-1.48-12.47-4.38-9-17.26-21.67-44.69-33.27-21.17-15.34-17.93-14.68-8.28-7.35-18.25-12.05-27.79-16.4-25.6-14.4-17.6-12.8-12.85-10.7-8.7-8.44-10.5-21.06-15.19-25.04-14.34-15.08-11.22-9.98-16.21-19.95-2.76-7.72-.12-11.9 3.61-20.21 2.98-18.98-2.04-16.56-4.56-9.38-8.43-8.81-9.98-7.44-18.4-11.09-5.05-4.57-12.54 7.11-56.22 1.96-7.48-.26-8.03-1.8-25.39-8.74-5.86-.2-4.97.75-13.69 61.39-2.35 30.2-.55 10.97-.26 3.55-.75 5.52-3.36 19.6-3.08 11.78-3.93 11.99-3.45 11.87-6.8 20.56-3.48 12.37-13.18 35.64-3.14 9.79-.94 2.15-1.14 2.55 30.71 19.55 17.22 14.26 17.78 14.85 22.69 18.89 28.16 23.44 18.11 15.26 16.51 13.67 19.91 16.65 19.9 16.63 29.02 24.2 42.22 35.1z" /></g></g></svg>