<?xml version="1.0" encoding="utf-8"?><svg xmlns="http://www.w3.org/2000/svg" version="1.1" baseProfile="tiny" width="800" height="600" viewBox="0 0 800 600"><g><g stroke="#000000" stroke-width=".98" fill="#FFFFFF"><path d="m303.59 5.94l-2.4-.55-1.62-.39-6.9 1.05-5.22.8-7.49.21-9.38-1-8.14-.75-3.02 12.91-1.97 12.87-2.86 17.1-2.94 26.93-.87 8.72-.24 4.43-1.75 15.39-3.02 33.68 1.9 19.42 3.27 13.7-1.94 13.27-1.1 14.72-7.68 44.06-1.9.12-.24 12.06.24 10.45-.64 14.77-3.46.04-.64 7.44-.51 6.45 0 4.84 1.28 5.33-16.39 87.42-1.73 17.48-1.31 8.18-3.11 14.8-2.54 15.76-2.53 12.05 1.15 12.15 0 11.44-1.33 11.78-.1 4.23-.07 8.6-.23 3.6-.62 6.42.31 7.68 18.38 4.12 14.66 2.51 15.91 1.92 29.2 7.35 17.34 4.49 18.64 5.5 8.42 3.35-.34.94 10.34 4.37 73.21 27.32 4.82 1.44 5.14 1.77 12.23 4.32 3.6-13.09 4.43-20.02 6.5-15.54 14.73-40.29 8.28-14.42 4.31-6.36.82-12.6 5.26-38.38 15.75-54.61 13.65-38.33 9.57-23.29 16.25-32.44 12.18-25.61 25.56-39.51 19.77-35.19-4.68-2.8-5.67-3.41-6.53-3.97-48.87-24.35-7.69-7.08-29.66-19-16.16-7.61-6.76-3.69-27.29-10.7-34.19-27.34-41.53-46.89-6.95-3.9-7.91-3.54-46.98-15.1z" /></g></g></svg>