<?xml version="1.0" encoding="utf-8"?><svg xmlns="http://www.w3.org/2000/svg" version="1.1" baseProfile="tiny" width="800" height="600" viewBox="0 0 800 600"><g><g stroke="#000000" stroke-width=".98" fill="#FFFFFF"><path d="m329.42 5l-123.51 39.8 22.64 41.07 11.87 26.37 7.59 33.35 7.98 51.62 3.5 26.18-6.61 74.04-12.26 86.85-5.06 26.56-16.54 101.17.78 68.67.28 14.32 24.51-7.44.98-.24 87.4-21.24 75.78-18.28 32.14-8.01 28.75-5.19 6.95-.86-91-191.91 71.55-2.91 6.66-64.66 2.4-4.1 1.9-6.93 1.84-6.67 9.6-46.35 1.66-7.43 63.57 10.5 4.56-16.82 2.5-8.43 4.84-8.03 4.18-7.06 10.72-18.31 22.52-30.99-58.29 2.42-42.56 3.86-33.21 3.37-23.2.79-87.33-103.68-20.08-25.4z" /></g></g></svg>