<?xml version="1.0" encoding="utf-8"?><svg xmlns="http://www.w3.org/2000/svg" version="1.1" baseProfile="tiny" width="800" height="600" viewBox="0 0 800 600"><g><g stroke="#000000" stroke-width=".98" fill="#FFFFFF"><path d="m506.69 13.87l-5.97-7.52-31.27-1.35-.89 28.85.04 2.69-.13 5.54-.25 2.12-2.31 2.36-3.01 2.87-2.54 1.46-1.94 1.74-.65 2.86.17 5.24.13 7.14.13 33.74-.85 4.55-3.15 5.22-1.88 1.69-2.01.78-2.13.25-36.55-2.15-34.88-1.02-22.8-.58-21.05.11-19.17-.25-3.09 7.43-2.99 6.81-4.96 8.4-3.39 1.23-3.55.74-1.74.31.63 2.94 1.1 6.7-.6 3.03-1.78 2.45-1.63 3.75 0 3.18 1.79 3.31 1.94 2.16.89 1.87.74 7.9.75 15.48.63 8.12.55 8.33 1.1 7.77 1.64 10.01 3.88 37.35.54 4.13-.88 3.56-1.33 2.99-8.67 2.25-5.75 9.03-6.94 11.21-16.92 26.07-26.5 42.01-23.75 36.6 14.98 9.2 26.43 14.85 4.94 4.81 1.98 1.93 2.48.72 2.99-.72 4.47-2.41 6.69-.23 2.35.83 3.25 24.16-8.6 9.59-4.65 16.66-5.06 11.85 2.97 2.22-1.09 7.22-5.93 31.17 14.36 2.33 14.56 2.72 7.25.45 26.48 1.01 2.19.28 21.95 1.32 18.9.92 25.74 3.49 5.16.37 21.92-.13 9.42-.62 7.85.14 8.04 0 12.48.23 6.5.11 12.97 1.11 2.91.46 6.78 1.34 5.61 1.31 8.72 2.89 9.82 4.69 5.09 2.5 4.88 2.33 5.23 3.26 9.71 5.25 3.33 2.44 3.66 2.77 2.84 3.6 2.51 3.93 3.85 6.72 6.38 7.52 1.86.45 2.76.63 1.7-4.92 2.28-8.48 6.5-19.22 1.08-3.28 7.65-20-27.91-30.17-.36-4.93-2.97.18-1.41.24-21.6 1.17 2.44-24.27 1.65-14.11-32.48-15.95-14.34-22.06-4.03-27.22 0-23.76-.64-17.43-.02-7.27 1.59-2.16-.39-15.45.56-15.61.46-13.78.36-12.67-17.8-.69-18.24.58-14.4 1.13-7.15-1.24-8.96-2.31-10.51-1.6-11.98.73-2.29-6.93-2.22-4.98-1.16-2.87-1.74-4.71-3.61-13.53-2.01-10.16-4.57-17.89-1.44-6.51-2.17-6.98-.99-3.69-.5-2.16-2.16-10.52-1.25-6.08-.6-8.26 1.8-10.18 1.31-4.26 3.95-5.58 1.5-1.89 6.91-8.44 3.56-3.1 4.73-3.18 6.84-3.03 3.83-1 6.9-1.62 9.48-.83 3.33.04 10.99-.07 4.2.35 3.83-.56 5.18-1.32 12.21-6.47 3.45-2.59 3.83-4.09 2.3-3.51 3.06-4.26 3.45-4.04 10.03-13.01 6.34-7.36 10.27-13.32 1.47-2.05 11.53-17.5-4.2-9.8-2.46-6.63-1.82-9.63-.83-22.38z" /></g></g></svg>