<?xml version="1.0" encoding="utf-8"?><svg xmlns="http://www.w3.org/2000/svg" version="1.1" baseProfile="tiny" width="800" height="600" viewBox="0 0 800 600"><g><g stroke="#000000" stroke-width=".98" fill="#FFFFFF"><path d="m83.49 54.25l-24.43-.27-3.29.88 1.95 5.89-8.29 2.51-.05 1.9-5.31 1.41-.42-2.33-14.53 2.68-5.07-13.82-8.45 2.97-3.46 7.4 2.76 9.43-9.9 10.56.66.45 7.17 1.71 6.76 2.83 1.06 1.02.8 1.81 6.87 17.06 1.17 2.75 1.92 4.4 14.58 14.53 6.45 4.95 29.47 32.73 1.83.69 3.76-.31 12.09-6.09 5.25-2.45 5.64-3.09 4.24-1.76 3.28-.82 2.79-.59 4.5-.35 4.97.35 8.62 1.65 8.41 3.43 1.17.46 11.33 6.65 11.81 7.32 9.21 4.56 4.27 2.11 3.42 1.54 2.81 1.07 14.91 2.83 8.49.7 2.41-.47 9.76-3.51 11.79-4.48 8.11-2.88 4.12-2.1 4.44-3.54 6.52 4.7 2.82 1.93 2.8 2.09 2.67 2.69 1.95 2.45 2.68 3.76 1.84 3.3 2.31 4.22 1.99 4.26 1.22 4.24.46 4.72.1 4.22 47.71 8.67-29.21 84.6 30.81 34.74 19.3 15.57 19.13 9.66 32.17 6.56 17.6 4.59 9.74 4.79 62.14 46.33 18.75 14.3 28.1 18.85 49.6 21.14 58.23 29.82 11.85 15.41 49.52 28.08 17.07-25.99 40.59-32.57 23.11-16.28 6.09-8.35-46.98-19.86-4.36 8.54-60.32-62.14-17.71-22.62-5.24-9.36-3.85-7.26-9.87-12.76-8.01-7.45-1.98-.99-8.13-.34-4.43.71-9.96-3.66-14.18-9.59-31.09-40.89-4.62-5.65-4.93-4.38-5.35-4.18-4.95-4.35-4.74-3.79-4.45-3.83-3.51-2.2-5.99-4.62-3.5-3.98-3.5-4.18-3.92-4.2-6.18-5.81-3.91-5.39-3.5-4.19-4.12-4.98-5.35-5.58-4.13-3.99-4.16-4.22-4.54-3.38-4.53-2.79-3.71-2.6-4.89-2-6.4-2-6.39-1.2-6.59-1.6-7.01-.8-6.8-.6-6.19-1.12-4.12-.99-4.75-.81-4.74-.01-4.51-.52-7.64-1.68-4.52-3.69-1.39-5.38-.69-7.12 1.39-8.73 11.13-27.51 4.44-10.66 3.21-9.24 1.04-4.99.82-4.59-.63-4.8-1.03-2.79-3.7-2.2-7.8-3.74-10.73-3.03-19.91-5.36-13.08-4.78-15.24-3.61-13.41-2.59-6.26-.48-6.08-.48-9.92-1.25-6.42-.96-11.33-1.28-17.28-2.33-5.21-.84-11.62-6.73-25.18-6.98-15.1 16.63-.26.31-1.78 2.02-2.78 3.4-7.47-4.12-15.41 18.36-39.98-15.08-69.6-12.96z" /></g></g></svg>