<?xml version="1.0" encoding="utf-8"?><svg xmlns="http://www.w3.org/2000/svg" version="1.1" baseProfile="tiny" width="800" height="600" viewBox="0 0 800 600"><g><g stroke="#000000" stroke-width=".98" fill="#FFFFFF"><path d="m313.39 54.81l-.82 5.48-2.89 15.49-1.24 6.21-1.71 5.59-2.67 6.85-3.19 6.86-5.9 11.52-6.29 9.61-5.79 6.76-8.28 9.55-9.52 8.88-9.72 7.17-10.19 6.72-17.96 10.15-23.08 12.27-17.82 10.48-15.5 10.42-12.31 9.69-10.29 9.45-8.97 9.83-5.07 6.38-7.5 11.19-4.42 7.32-5 10.97-3.45 7.33-3.44 10.17-4.15 16.18-1.48 11.22-.81 6.76-.33 8.93-.27 8.48.35 6.82.46 4.21 1.25 7.42 1.62 8.26 1.89 9.22 2.67 8.11 1.48 4.53 3.77 8.84 9.34 17.93 4.52 6.77 12.7 15.19 11.36 11.76 15.71 12.69 17.01 11.87 85.17 48.93 12.25 8.94 10.56 8.37 8.19 7.72 7.65 8.03 6.25 6.77 10.34 15.33 5.17 8.24 5.77 10.33 33.37-24.13 7.15-11.45 5.9-8.2 8.38-10.16 6.25-7.08 11.17-12.04 11.83-11.45 15.05-14.23 13.44-12.14 13.65-12.4.12-4.31 3.3-1.81 16.32-8.83 8.24 3.4 26.06 2.06 24.17 3.1 38.9 5.33 36.78 6.24 40.77 5.93 8.94-3.27-9.15-15.1 4.85-25.83 8.05-19.2 1.37-3.23 2.22-11.03-2.38-15.17-6.53-18.61-10.91-15.78-16.73-13.75-16.7-9.16-13.43-8.09-10.89-4.14-11.6-7.75-10.5-10.2-4.36-10.55 3.12-26.15 2.95-12.66 1-2.41 2.57-5.86 2.66-7.18 9.44-11.93 10.15-7.37 10.16-6.32 11.94-1.06 11.22 3.14 11.53 10.17 7.65-5.21 8.17-16.67 7.7-18.39 8.58-5 2.24.1 3.05.1 4.7-.1 5.93-.89-8.98-46.23-3.98-24.6-7.9-49.69-23.27 13.77-225.37-66.53-6.39 26.36-47.95-13.69-9.59 20.95-22.75 13.69-27.1 2.5z" /></g></g></svg>