<?xml version="1.0" encoding="utf-8"?><svg xmlns="http://www.w3.org/2000/svg" version="1.1" baseProfile="tiny" width="800" height="600" viewBox="0 0 800 600"><g><g stroke="#000000" stroke-width=".98" fill="#FFFFFF"><path d="m448.5 6.43l-.47-1.43-2.89 2.45 5.15 55.04-8.4 3.85 3.15 9.44-10.69 6.62-15.77 7.47-5.81 10.23 1.66 10.79-1.94 19.37-.71 9.18-55.91-.61-3.92-.2-22.03.13-2.07.9-1.61 1.32-2.74 1.52-2.2-1-1.6-.52-2.02-.68-2.03-.48-2.58-.38 1.45 1.15 1.09.9 1 1.46.92 1.71 1.01 1.62.42 1.7-.01 2.03.53 7.62.06 8.71-.53 13.63-.32 5.85-.37 6.36-.25 3.95-.69 4.91-.82 5.36-1.21 6.48-1.08 4.82-1.31 4.9-4.77 13.22 17.48 10.26 2.64 2.91 1.6 2.08 1.41 2.37 1.71 2.84 2.41 4.79 1.41.87 3.71 4.67 5.45 8.43 9.4 19.45-.39 2.4-25.74 9.23-18.79 8.5-4.79 2.11-6.4 2.74-.83.41-3.11 1.58-4.94 2.47-1.34.89-1.16.8-.8 1.49-.63 1.22-.63 1.83-.63 1.48-.63 1.48-.9 1.4-1.61 1.75-7.6 8.16 25.52 6.53 2.11.69 3.03 1.47 2.33 2.05 1.92 2.24 1.41 1.94 1.01 2.14 1.01 2.63.39 2.41.6 3.6 1.54 15.12 2.39 21.99 2.29 20.9.4 3.52.4 1.96.6 2.15.5 1.85.89 2.53 1.12 1.87 1.03 1.48 1.02 1.48 1.83 2.27 1.02 1.08 1.92 1.52 4.16 2.76 2.14 1.28 2.78 1.01 8.84 1.79 4.43.35 5.4-.19 8.57-1.12 4.39-.69 3.25-.19 1.83 0 1.53.19 1.73.2 1.62.59 1.64.79 1.42.69 1.43.98 1.23 1.09.92 1.18 1.34 1.68 1.66 3.23 2.52 5.83 2.31 5.82-20.41 11.6-15.01 8.1-14.58 5.38-3.73 1.4-4.79 1.49-5.99 1.73-7.08 2.03-3.64.77-4.23.7-3.79.77-4.73.62-7.03.84-8.93.63 2.14 4.56 1.61 4.53-4.13 4.29-13.03 1.75-11.47 2.2.13 10.71-8.85 2.12-7.46 1.67-14.06 3.44-14.42 3.55 3.93 8.52 2.56 4.24 2.93 5.48 2.53 4.43 2.66 5.14 2.68 4.99 2.43 5.19 2.86 5.01 35.79-18.45 4.79-2.32 5.79-2.91 33.13-16.62 31.94-16.88 36.18-17.9 2.9-.33 4.57-1.43 3.01-1.68 2.94-1.66 4.99-2.57 2.17 4.45 1.29 2.5 2.05 4.04 2.64 5.25 3.41 6.67 1.7 3.44 1.68 2.69 1.65 2.49.93 1.25 1.19 1.29 1.82 1.15 1.41.79 1.42.34 5.48-8 12.62-19.33 10.52-16.22 11.74-18.62 7.5-11.55 3.08-4.97 2.55-4 3.84-1 .59-1.32.39-1.58-.24-1.83-1.72-16.55-.73-4.44-.48-3.44-.25-3.69-.28-3.61-.33-6.85-.33-3.5-.39-.83-.86-.96-.79-1.47 0-1.41.72-1.66.79-1.08.26-1.35-.48-2.97-.29-1.3.78-.14 1.57-.33 1.5-.54 2.2-3.72 1.33-3.02 1.37-3.29 8.49.11 9.33-.05 10.1.25 15.46.46 16.2.95.94-.11.89-.35.84-.74 1.39-2.32.38-2.01-.06-14.96-.06-3.16-.07-2.32.28-1.27.87-.77 1.12-.65 1.34-1.27 1.02-1.05.11-.93.06-2.46-.02-1.19.39-12.79 12.51.54-14.72-35.05-11.18.25-12.94.29-2.77.26-24.85.52-9.93-.97-5.94.95 1.7-4.31 1.36-3.78 6.62-13.82 1.32-2.88 2.41-6.07.87-2.27 4.26-11.18 2.28-5.77 1.93-4.97 1.49-3.89.99-2.45 2.44-6.44 4.6-15.61 1.66-8.42.64-3.99.47-4.09.46-5.91.19-4.54.03-4.09-.04-2.14-.12-3.09-.28-10.19-.42-9.09-.27-4.62-.6-11.17-.75-9.32-.29-4.85-.68-11.23-.86-14.18-.49-6.21-.67-11.42-.72-9.49-.71-6.05-.65-3.42-1.21-4.27-1.05-3.24-1.34-3.43-2.23-4.01-2.51-3.91-2.22-3.2-2.07-2.34-2.04-2.13-2.87-2.66-3.38-2.69-3.79-2.71-4.38-2.59-10.75-6.13-11.63-6.72-5.36-3.74-4.95-3.99-3.58-3.71-4-4.78-1.42-2.13-2.94-5.65-1.19-2.78z" /></g></g></svg>