<?xml version="1.0" encoding="utf-8"?><svg xmlns="http://www.w3.org/2000/svg" version="1.1" baseProfile="tiny" width="800" height="600" viewBox="0 0 800 600"><g><g stroke="#000000" stroke-width=".98" fill="#FFFFFF"><path d="m182 133.35l-96.67-36.72-9.62 10.32-13.56 1.44 13.58 47.78 2.96 7.18 10.49 30.15 2.54 6.89.02.05 13.73 37.84-1.43 5.01-8.67 21-1.5 2.08-5.56 7.82-5.28 6.76-1.45 1.72-8.93 6.91-4.58 6.92-5.81 19.15-6.07 13.87-16.73 35.19-19.58 45.52-14.88 43.95 7.21.47 6.8 14.1 30.91-.3 101.64-3.23 41.43-17.77 25.17 16.81 22.78 4.64 28.71 4.77 82.93 8.97 8.2-22.34 46.47 14.99 56.46 14.63 78.29-89.52 22.92 18.63 46.78 42.48 46.46 41.86 14.43-7.79 38.27-20.14 39.64-16.83 25.59-9.71 18.91-7.13-21.38-33.89-4.53-2.12-5.53-6.04-3.87-7.05-33.8-17.72-3.16-1.34-25.25-13.99-32.39-16.56-21.72-8.74-10.08-4.23-6.22-3.05-28.51-12.42-18.39-7.95-31.63-26.49-10.32 5.88-42.53-24.51-11.92-8.1-6.31-4.15-6.65-1.99-36.23-11.8-10.66-4.1-14.36-6.69-23.47-12.22-19.15 8.4-11.48-11.76-7.74-7.53-3.96-2.09-65.86-25.45-18.73-7.82-.64-.27-33.77-13.42-42.76-19.21z" /></g></g></svg>