<?xml version="1.0" encoding="utf-8"?><svg xmlns="http://www.w3.org/2000/svg" version="1.1" baseProfile="tiny" width="800" height="600" viewBox="0 0 800 600"><g><g stroke="#000000" stroke-width=".98" fill="#FFFFFF"><path d="m255.69 8.12l-7.57-3.12-14.98 8.11-3.02 1.65-.11 3.96-17.77 16.27-7.48 6.62-14.19 13.49-10.55 10.21-13.22 14.46-10.04 11.79-2.49 3.65-4 5.72-5.42 8.75-30.6 22.12-.06.13 4.71 11.42 6.42 21.74 2.02 10.13 2.05 17.76 1.52 19.88 9.01 143.4 2.27 29.29 3.78 67.93 1.3 47.23-.48 29.05-2.83 28.36-2.31 13.79-4.46 23.09 123.24-.18 4.05-17.53 3.71-9.28 2.73-4.15 2.41-3.31 3.26-2.81 13.06-9.73 17.88-12.7 13.35-10.91 5.14-4.9 2.59-3.49 4.57-6.17 9.43-2.5 5.3-1.32 4.78-1.49 2.9-1.65 3.4-3.47 1.97-3.12-1.32-2.7-9.81-43.77-.46-2.68-4.59-16.57-1.11-26.08-.48-18.71 4.78-17.26 8.12-7.43 1.89-1.83 15.13-9.71 15.62.03 16.14.41 11.99.1 13.17 0 17 .39 14.44.41 9.12.69 49.89 4.41 19.89-.4 49.3-1.05 8.45-1.55 14.13-2.72 14.51-5.17 6.38-2.38 18.3-10.06 15.66-14.73 7.83-14.32 8.27-10.94 2.61-19.79-2.53-9.37-6.96-8.22-13.12-19.98-3.15-3.92-12.08-15.58-9.73-6.04-10.25-6.58-11.36-11.49-13.48-13.23-5.92-6.61-17.05-26.96-7.23-11.07-6.75-10.57-14.4-15.18-14.39-13.88-21.84-11.04-14.02-5.06-23.91-7.02-23.1-7.69-26.78-20.21-10.88-17.27-8.21 3.01-37.41-5.45-33.76-5.72-35.71-4.9-22.18-2.84-23.92-1.89z" /></g></g></svg>