<?xml version="1.0" encoding="utf-8"?><svg xmlns="http://www.w3.org/2000/svg" version="1.1" baseProfile="tiny" width="800" height="600" viewBox="0 0 800 600"><g><g stroke="#000000" stroke-width=".98" fill="#FFFFFF"><path d="m795 77.58l-27.02-2.61-2.61-.66-5.26 43.22-231.28-89.53-35.37 99.31-76.87-28.39-132.04-7.9-.99-17.2-278.56-14.35.91 219.49 42.22 5.11-8.75 31.71 12.89 13.87 45.45 7.59-1.92 16.74 52.1 5.96 33.09 7.28 1.04 7.25-12.4 9.14-4.8-.81-8.97-.59-29.35-2.3-17.9 17.72 2.22 9.72-46.84 54.58 11.99 16.31 20.06 25.55 6.53 5.77 84.24 32-7.3 30.44 348.68-61.61 40.17-71.27 11.05-3.72 22.01-23.63 43.15 28.43 42.82-68.1 36.88-54.48 17.04-31.8 14.53-31.76 20.66-60.13 12.57-52.45 3.99-27.66 1.94-36.24z" /></g></g></svg>