<?xml version="1.0" encoding="utf-8"?><svg xmlns="http://www.w3.org/2000/svg" version="1.1" baseProfile="tiny" width="800" height="600" viewBox="0 0 800 600"><g><g stroke="#000000" stroke-width=".98" fill="#FFFFFF"><path d="m316.62 37.36l-37.14-7.5-24.86-9.43-21.8-15.43-15.79 26.76-40.51 5.2-20.3 50.69-2.15 15.22.27 19.8 37.74 7.24-3.94 22.57 123.49 26.07 11.28-25.05 40.27 14.78 8.27-13.1 18.42 8 5.52-11.13 33.36 5.84 33.93 94.53-14.74 2.04-41.8-27.81-5.38 5.84-34.02-12.99-19.99 47.51 11.8 10.49-5.26 4.51 49.62 52.49-13.91 6.19-8.16-14.9-44.14-2.4-8.5 38.59 26.4.62 16.25 7.58 27.85-8.89 3.31 7.65-1.69 165.49 64.14-.44-.04 12.74 38.35.44.22 34.58 15.19 1.67 3.23 9.1 107 2.48 17.52-12.52-.83-30-4.36-28.1-1.81-12.6-4.81-18.2-2.71-10.34-6.76-18.85-11.73-31.6-11.63-32.54-27.65-73.73-9.66-25.42-11.32-31.05-7.49-28.19-10.21-38.23-2.25-19.98-1.68-17.45-1.12-25.77-15.42 1.78-20.3 1.41-22.55 2.25-25.18 4-4.94-13.77-10.75-28.56-3.66-22.55 4.51-21.99-45.95-14.09-69.05-11.55z" /></g></g></svg>