<?xml version="1.0" encoding="utf-8"?><svg xmlns="http://www.w3.org/2000/svg" version="1.1" baseProfile="tiny" width="800" height="600" viewBox="0 0 800 600"><g><g stroke="#000000" stroke-width=".98" fill="#FFFFFF"><path d="m650.42 9.05l-5.57-4.05-6.07.51-7.59 2.53-9.37 2.78-7.84 2.53-6.33-1.01-12.39-1.27-6.83-1.47-6.84-1.06-10.88 5.06-10.63 5.82-11.13.76-12.91-1.26-10.12-1.27-8.6-.76-6.33-3.54-8.13-1.83-6.29-1.97-7.09.51-4.8 3.29-3.29 3.8-1.02 5.31.51 7.09 1.52 10.12-1.01 9.11-1.52 7.59-4.56 2.02-7.34 3.04-6.32-.25-7.09-1.27-8.6 4.56-6.33 5.06-9.61 4.04-8.86 4.81-7.34 2.28-6.32-.25-6.08 4.05-7.84.5-4.81-1.01-5.56-7.09-5.82-5.06-5.67-2.7-4.08-.43-3.01 2.47-.58 8.68-1.84 7.28-3.2 4.22-3.69-1.89-8.05-1.94-4.05-6.58-6.07-3.79-5.57-3.29-4.3-3.8-4.96-.97-17.18 15.14-16.44 21.72-1.02 19.38-1.22 5.91-6.53 4.49-4.36.41-7.68-.2-6.53 3.46-4.48 1.84-8.37 7.14-10.2 10.41 2.04.61 2.45 0 1.02 2.24.81 3.68.62 8.77.2 3.87 1.5 13 2.17 22.5.3 17.2-8.42 27.67-8.02 16.84-11.63 6.82-22.05 25.66-23.95 36.83-7.54 1.33-7.1 3.11-9.1 8.2-12.42 15.97-3.77 13.98-.44 7.76-9.76 8.87-24.62 38.15-13.09 11.09-24.39 31.72 24.75 10.78 5.39 2.64 8.75 3.68 18.86 7.58 28.11 14.38 21.93 12.14 2.73 1.17 29.35 15.38 3.36 6.11 4.79 5.25 3.94 1.84 18.56 29.42 14.61-6.85 28.55-23.2 36.03-25.4 18.3-18.74 12.04 3.12 21.87 7.58 26.88 5.33 47.74 16.51 10.78-50.52 9.79.47 11.26.93 10.75.16 12.63 6.74 14.33-44.22-43-13.88-53.51-20.1 22.43-42.41 50.73-142.72 4.54-11.13 2.43-5.28 3.26-2.06 12.82-21.37 20.24 9.25 16.1-6.5 25.24-8.42 14.81-6.53 54.06-19.46 9.38-2.56 5.9-1.62 36.77-13.2 18.83-4.73 4.85-14.21-14.42-1.31-15.29-1.31-13.04-2.76-13.16-2.03-10.32-.91-6.96-.77-6.42-1.01-8.02-1.85-7.85-.88-7.46-.73-8.08.23-4.12-68.64 85.15 5.91 6.29 1.12 15.51 5.52 14.76 7.08 12.34 4 1.77-9.73 1.12-8.84-21.81-8.46-7.21-1.28-6.07-1.77-4.56-3.8-9.11-8.6-6.83-9.36-5.06-9.36-4.56-7.09-5.06 1.01-6.58.76-6.57.76-3.04-6.83z" /></g></g></svg>