<?xml version="1.0" encoding="utf-8"?><svg xmlns="http://www.w3.org/2000/svg" version="1.1" baseProfile="tiny" width="800" height="600" viewBox="0 0 800 600"><g><g stroke="#000000" stroke-width=".98" fill="#FFFFFF"><path d="m470.72 15.93l-27.92-10.93-18.97 33.08-30.34 55.08-42.68-18.02-10.29 27.14-24.57 3.53 1.21 23.84 2.15 74.12-24.89.99-22.53.52-4.13-95.1-44.98 4.49-18.75 2.27-13.05 3.35-11.28 4.38-5.37 1.02 56.44 106.11 8.02 13.91 22.79 35.38 6.06 6.26-60.02 53.89-2.68-3.22-42.68 34.12-47.24 38-8.01 7.1-16.63 14.63-41.9 36.38-10.21 9.37 144.77 117.38 276.1-73.07 2.53-10.53 22.92-3.42 13.23-4.16 9.28-4.61 31.45-32.69 44.31 41.62 12.32 7 19.02 8.14 12.92 8.51 17.41 13.98 5.53 2.55 12.24 1.91 9.38-8.83 14.36-9.93 17.37-15.87 28.98-154.59-2.25-9.43 0-8.56.9-11.4 1.13-13.17 6.12-.07 1.13-26.11-.43-18.49.42-21.31 3.37-.21 13.57-77.93 1.94-26.02 3.44-23.48-5.78-24.23-3.37-34.33-24.2-4.15-28.14-4.48-19.28-2.39-26.75-4.5-20.94-3.32-43.93-4.81-30.07-1.11-29.26-5.44-34.1-11.59-25.19-8.55z" /></g></g></svg>