<?xml version="1.0" encoding="utf-8"?><svg xmlns="http://www.w3.org/2000/svg" version="1.1" baseProfile="tiny" width="800" height="600" viewBox="0 0 800 600"><g><g stroke="#000000" stroke-width=".98" fill="#FFFFFF"><path d="m148.1 5l-38.71 13.34-6.26 1.49-8.73 4.61-17.11 9.24-3.87 6.54 3.89 7.88 8.09 15.49 2.28 4 3.9 7.63 9.89 16.32-17.66 17.54 1.38 6.7 2.78 8.89 2.78 10.28.44 3.43.96 12.2 0 11.62-.01 7.48.46 5.8 1.38 6.7 3.22 5.81 2.31 2.24 4.15 4.92 4.15 4.03 6.01 4.02 8.78 3.13 8.31 2.68 10.16 2.23 10.62.9 10.63 0 11.55 0 12 0 10.6.89 11.49.24 15.24 1.34 12.48.9 15.72 2.68 7.41 3.14 6.02 4.92 4.62 4.92 2.3 5.82 1.86 6.27.48 5.82.93 6.27-.46 9.41 1.4 8.76 1.87 8.51 2.31 8.51 1.32 2.26 8.27 13.13 6.59 8.15 5.52 7.17 7.86 4.92 8.31 3.13 6.5 4.49 8.73 10.16 41.15 64.06 15.3 21.03 5.08 9.4 3.7 8.05 3.7 10.74 2.78 10.3 2.77 9.85.46 9.84 2.31 9.85 2.31 12.53 2.77 11.19 4.62 10.3 5.08 9.84 6.94 8.95 12.07 11.6 23.6 17.02 21.43 16.5 82.29-10.84 13.09-20.95 25.9-47.33 20.29-46.88 20.98-38.59 14.27-39.81-15.89-42.36 2.16-26.49 74.18-46.71-162.22-107.1-50.79-30.05-122.22-46.04-87.02-26.18-18.18-2.4-20.94-1.44-8.39 2.61-11.59-51.63-25.72 19.27-4.7-1.67-5.19 9.23-12.21-7.25-27.08-23.71-7.38 6.62-14.85-10.3z" /></g></g></svg>