<?xml version="1.0" encoding="utf-8"?><svg xmlns="http://www.w3.org/2000/svg" version="1.1" baseProfile="tiny" width="800" height="600" viewBox="0 0 800 600"><g><g stroke="#000000" stroke-width=".98" fill="#FFFFFF"><path d="m439.98 94.46l-40.94-89.46-3.57.44-14.75 2.67-16.5 4.1-38.89 9.39-44.85 10.9-.5.12-12.58 3.82 12.25 38.05 6.32 11.31 6.55 13.75 24.49 43.8 9.22 19.16 5.86 17.84 5.1 16.13 4.44 13.7 10.91 35.31 5.02 11.6 2.25 6.23 4.25 11.38 6.96 21.66 2.09 5.77 1.36 3.78 9.1 31.26 1.61 10.59 1.26 4.76 1.22 7.05.5 7.41-1.58 17.78-7.84 45.48-6.17 29.42-6.16 16.34-9.06 30.93-5.78 5.92 25.42 5.13 47.27 7.91 31.45 9.65-3.09 15.05 2.51 15.44 7.36 19.55 3.38 9.42 17.24-2.73 15.43-1.55 13.89-.96 10.57-1.22-.02-4.67 1.31-46.94 5.2-96.13.72-16.71 2.08-55.14.31-8.86-.23-14.43-.87-18.39-2.76-20.49-3.05-13.47-4.78-18.72-6.57-18.89-30.33-66.91-33.76-72.05-10.27-22.28z" /></g></g></svg>