<?xml version="1.0" encoding="utf-8"?><svg xmlns="http://www.w3.org/2000/svg" version="1.1" baseProfile="tiny" width="800" height="600" viewBox="0 0 800 600"><g><g stroke="#000000" stroke-width=".98" fill="#FFFFFF"><path d="m552.3 5l-31.9 58.49-7.81 20.07-10.8 22.87-18.32 26.37-25.75 26.14-35.2 24.27-71.27 28.28-23.43 7.38-35.2 12.69-24.3 5.79-113.1 5.48-18.43 48.81-13.64 19.23-8.9 15.97-5.2 17.57-4.33 19.96-3.16 23.31-.07 22.42 3.24 24.15 1.07 22.03 6.24 28.43 7.53 32.55 10.78 26.25 8.64 22.07 4.52 7.81.9 1.65 17.39 11.56 19.58 6.3 20.67 2.1 21.75-5.26 17.38-9.45 11.94-14.7 14.09-12.61 18.44-16.8 17.35-11.56 21.69-6.3 23.89-5.24 26.07-2.96 37.93.89 28.01 4.19 16.25 4.2 8.67 4.19 15.18 11.55 15.18 18.9 6.5 25.21 41.48-41.19-23.22-38.33-9.15-17.93-5.37-9.4-18.99-36.37-9.3-18.32 9.09-15.35 40.33-21.91 20.04-10.74 20.4-4.81 85.69-30.16-37.61-213.82-6.9-13.48 16.18-9.82 9.51-1.33 6.87 8.29 57.09-21.7-6.23-19.44-139.98-58.44z" /></g></g></svg>