<?xml version="1.0" encoding="utf-8"?><svg xmlns="http://www.w3.org/2000/svg" version="1.1" baseProfile="tiny" width="800" height="600" viewBox="0 0 800 600"><g><g stroke="#000000" stroke-width=".98" fill="#FFFFFF"><path d="m398.4 5l-38.08 23.19-50.21 32.1-36.07 21.88-25.17 15.86-31.18 21.3-13.61 14.07 18.49 75.6.4 12.54 8.72 103.74 6.21 61.4-2.25 11.39-10.7 7.67 8.46 23.35 3.37 30 6.9 61.78 6.72 74.13 23.43-.21 28.26-3.54 41.75-10.12 41.18-8.7 77.48-14.55 24.68-5.04 13.26-29.89-4.9-21.21-5.47-26.17-8.08-34.34-9.63-37.75-8.52-35.96-9.98-37.74 14.51-3.93 23.65-3.21 39.07-7.62 34.48-8.17 11.32-3.22 11.76-2.33 7.27-1.63-20.77-76.8-8.81-29.48-3.62-11.47-8.06-25.5-7.32-21.16-2.14-11.23-146.8-119.03z" /></g></g></svg>