<?xml version="1.0" encoding="utf-8"?><svg xmlns="http://www.w3.org/2000/svg" version="1.1" baseProfile="tiny" width="800" height="600" viewBox="0 0 800 600"><g><g stroke="#000000" stroke-width=".98" fill="#FFFFFF"><path d="m133.73 287.21l-8.27 28.02-4.38 11.55-1.77 4.39-2.67 6.99-3.46 8.91-4.11 10.36-7.64 20.08-1.56 4.07-4.33 10.9-2.37 5.15-11.87 24.81-2.44 6.78-3.05 7.74 10.66-1.71 17.83 1.75 44.59-.95 4.97-.45 23.22-.53 20.06-.45 26.44 62.93 2.41.09 4.76 5.98.65 17.81 1.45 7.65 1.96 5.27 3.33 7.79 2.32 3.57 2.22 9.77 14.83 12.09 31.78 27.43.46-65.99 12.48.67 4.53.1 6.31-2.96 1.61-8.85 7.91-1.06 15.97-1.91 3.92-.38 14.46-6.37 6.63-1.87 3.61.92 3.95-.35 29.07-10.06 21.16-10.55 3.05-2.67.81-2.85 3.75-3.55 12.23-9.15 6.59-4.33 18.34-10.42.49-1.82 39.77-27.53-2.21-3.81-4.21-10.75-5.25-12.8-3.67-15.86-3.04-13.85-.52-10.74-1.58-11.76.03-10.93 1.54-11.36 2.11-9.73 2.65-8.7 4.23-7.68 5.67-6.83 9.98-26.34 25.97-1.32 29.1-1.38 12.17-2.9 16.7-5.91 11.58-3.76 34.63-13.72 17.65-12.08 12.13-12.6 8.93-12.73 5.18-11.02 3.96-9.93 2.29-4.12 13.14-24.21 10.35-21.71 5.47-11.67 2.82-6.2-35.87-39.85-7.86-6.03-17.75-17.69-2.34-5.35-10.69-26.3-1.37-1.29-8.16-3.37-8.81-2.15-.79-.59-1.08 1.25-5.61 16.7-36.76 6.85-6.39 1.98-4.67 3.75-12.65 4.67-21.1.23-13.69 3.35-10.53 3.31-36.36-1.12-.27-4.85-3.89-1.05-13.63 1.05-8.93 1.42-11.61 8.11 4.87 3.05 7.44 9.59 1.94 2.41 8.08 12.31 4.29 5.06 1.55 5.77-1.61 12.19-5.09 6.74-4.82 8.81-9.65 9.08-11.27 6.19-3.92 1.47-8.94 3.18-8.7 1.67-5.21.96-30.36.65-12.24.24-30.72-2.71-5.62-.42-8.89-.26-10.48-.24-8.11 0-7.38-.06-9.94-.25-9.62-.02-9.31 5.97-1.16 1.13-5.01 4.58-2.94 10.63.29 11.52.69 16.06 2.83 10.2.28 1.65 6.04 26.96.81 1.66-1.21 1.93-2.1 2.13-1.78 1.02-2.95.91-3.26.82-5.81 1.54-2.81 3.8-1.6 2.14-3.16 3.03-8.22 6.71-11.01 7.82-8.05 5.99-2 1.74-1.49 2.04-1.68 2.55-2.28 5.71-2.45 10.83-75.91.08z" /></g></g></svg>