<?xml version="1.0" encoding="utf-8"?><svg xmlns="http://www.w3.org/2000/svg" version="1.1" baseProfile="tiny" width="800" height="600" viewBox="0 0 800 600"><g><g stroke="#000000" stroke-width=".98" fill="#FFFFFF"><path d="m183.74 12.8l-4.33-7.8-30.48 4.75 11.83 26.56-24.16 9.92-46.73 50.72 76.96 38.08-4.86 17.93 11.45 2.87 17.19 1.66.6-6.33 71.61 4.23 6.63 12.7 2.72 9.48-5.09 46.67-19.3 62.46-1.02.93 29.81 10.21 12.03 6.89 64.36 36.81 31.97 18.93 86.02 80.44 46.99 41.51 38.12 34.57 47.24 40.49 41.81 37.52 65.02-35.8-28.77-22.16-31.68-22.84-16.2-15.57-9.32-12.02-6.83-13.22-6.19-13.82-3.72-15.02-3.1-16.82-3.11-13.22-.61-13.22-3.73-13.22-3.72-13.82-4.96-14.42-4.97-10.82-6.83-12.61-20.54-28.24-55.24-86-11.72-13.64-8.72-6.02-11.17-4.2-10.54-6.61-7.41-9.62-8.85-10.95-11.1-17.62-1.78-3.04-3.09-11.42-2.52-11.43-1.88-11.76.62-12.62-1.25-8.42-.64-7.82-2.49-8.42-3.09-7.8-6.21-6.61-8.08-6.61-9.94-4.21-21.12-3.6-16.75-1.2-20.46-1.8-15.43-.34-14.22-1.19-16.11.01-15.5 0-14.27-.01-14.26-1.2-13.64-3-11.15-3.59-11.79-4.2-8.07-5.4-5.57-5.41-5.58-6.61-3.09-3z" /></g></g></svg>