<?xml version="1.0" encoding="utf-8"?><svg xmlns="http://www.w3.org/2000/svg" version="1.1" baseProfile="tiny" width="800" height="600" viewBox="0 0 800 600"><g><g stroke="#000000" stroke-width=".98" fill="#FFFFFF"><path d="m521.33 5.99l-1.24-.99-.72 1.49-1.83 3.43-1.71 2.89-1.88 2.64-1.27 1.62-1.31 1.26-1.28 1.04-1.25.89-1.96 1.34-1.62.87-1.51.77-1.5.51-2.1.41-.93.06-4.01.19-6.01-.43-1.96-.18-13.67-.96-15.93-1.07-7.22-.44-2.99-.22-7.03-.53-5.71-.36-7.14-.47-10.47-.65-3.13-.17-4.14-.15-4.56.18-5.94.62-4 .68-2.44.52-3.31.9-4.72 1.33-1.7.61-1.33.53-2.57 1.01-2.75 1.35-3.2 1.81-3.43 2.04-1.81 1.34-5.72 4.42-5.15 4.37-.5.52-8.48 7.88-2.21 1.99-7.36 6.66-10.3 9.36-9.18 9.12-2.89 2.99-6.22 6.28-3.12 3.15-3.57 4.34-2.19 3.32-1.09 2.1-.63 1.18-1.02 2.19-4.24 9.08-1.91 3.6-1.19 1.82-2.19 2.65-2.39 2.13-2.19 1.69-1.23.72-1.89 1.29-5.56 3.59-4.87 3.13-2.94 1.83-2.99 1.67-4.55 2.14-12.19 4.99-10.15 4.13-1.77.76-8.07 3.39-2.14.96-3.13 1.61-4.17 2.96-5.18 4.17-1.84 1.45-4.49 3.48-3.96 2.8-1.17.88-1.95 1.63-1.13.98-1.83 1.46-.02.01-.81.6-1.19 1.57-1.01.79-2.29 1.87-2.84 2-.86.6-4.15 2.77-2.88 2.88-.65.7-.81.96-7.15 6.03 1.68 3.16 17.7 34.43 35.55 67.52 64.37 113.03 3 4.76 8.4 17.3 6.11 12.58 18.91 32.26 3.45 7.45 2.55 5.52 3.12 6.75 3.8 7.68 6.04 11.13 8.24 15.22 6.84-2.64.71-.26 3.25-1.18 4.66-1.7 10.19-3.71 10.51-3.77 20.24 8.46 34.74 14.77 30.17 26.39 16.88 9.47 5.68 2.5 2.77 1.13 2.89 1.39 3.15 2.14 14.74 6.92 3.92 2.96 7.61-5.2 6.14-3.87 8.8-5.33 12.25-7.84 9.29-5.65 2.53-2.32 10.36-8.99 4.11-3.63 1.97-1.74 2.44-1.98 9.27-7.42 10.56-8.46.66.8 14.85-13.33-1.5-1.55-5.64-8.76-1.99-3.44-13.96-26.25-4.8-9.74-5.27-10.11-2.7-5.11-2.33-4.14-4.75-8.23-4.25-7.78-1.61-3.07-3.02-5.88-3.85-7.45-9.52-16.15 19.73-8.95 10.44-5.98 9.85-5.17 12.42-6.44-8.92-19.82-15.03-24.78-2.48.28-31.05 15.36-27.41 14.49-28.43 14.27-4.97 2.49-4.12 1.99-30.71 15.83-2.46-4.3-2.08-4.45-2.3-4.28-2.28-4.41-2.18-3.8-2.51-4.71-2.2-3.63-3.37-7.31 12.38-3.05 12.06-2.95 6.41-1.44 7.59-1.82-.11-9.19 9.84-1.89 11.18-1.5 3.54-3.68-1.37-3.89-1.84-3.92 7.66-.53 6.04-.73 4.05-.53 3.26-.65 3.63-.61 3.12-.66 6.08-1.74 5.14-1.48 4.11-1.29 3.2-1.2 12.51-4.61 12.88-6.96 17.51-9.95-1.98-4.99-2.16-5.01-1.42-2.77-1.15-1.44-.79-1.01-1.05-.94-1.23-.84-1.23-.59-1.4-.68-1.39-.5-1.49-.17-1.31-.17-1.56 0-2.8.17-3.76.58-7.36.96-4.64.17-3.79-.3-7.59-1.54-2.39-.86-1.83-1.11-3.58-2.36-1.64-1.31-.88-.93-1.57-1.94-.88-1.27-.87-1.27-.96-1.6-.78-2.18-.42-1.59-.52-1.84-.34-1.68-.34-3.03-1.97-17.93-2.05-18.87-1.32-12.98-.51-3.08-.34-2.08-.87-2.25-.86-1.84-1.21-1.66-1.65-1.92-2-1.76-2.6-1.27-1.82-.59-21.89-5.6 6.52-7.01 1.38-1.49.77-1.2.54-1.27.54-1.27.54-1.57.54-1.05.69-1.28 1-.69 1.15-.77 4.24-2.11 2.67-1.36.71-.35 5.49-2.36 4.11-1.8 16.13-7.3 22.09-7.91.33-2.07-8.06-16.69-4.68-7.24-3.19-4-1.2-.75-2.07-4.11-1.47-2.44-1.21-2.03-1.37-1.79-2.27-2.49-15-8.81 4.1-11.34 1.12-4.21.93-4.14 1.03-5.55.7-4.61.6-4.21.21-3.39.32-5.46.27-5.02.46-11.7-.05-7.47-.45-6.54 0-1.74-.36-1.46-.86-1.39-.79-1.47-.86-1.25-.94-.77z" /></g></g></svg>