<?xml version="1.0" encoding="utf-8"?><svg xmlns="http://www.w3.org/2000/svg" version="1.1" baseProfile="tiny" width="800" height="600" viewBox="0 0 800 600"><g><g stroke="#000000" stroke-width=".98" fill="#FFFFFF"><path d="m225.46 47.47l-133.67-26.98-45.15-15.49-12.9 78.19-3.6 25.61-4.16 31.78-1.1 11.27-10.82 85.64 113.11 60.25 13.88 8.36 11.23 7.05 25.03 16.34 41.78 59.87 3.47 3.96 4.1 5.41 3.25 5.08 2.69 4.18 2.52 5.05 3.15 7.47 2.64 7.41 1.31 3 1.17 2.48 1.46 2.48 1.46 2.14 1.53 2.22 1.8 2.39 1.95 2.36 1.95 2.23 2.1 3.01 1.73 2.95 1.24 3.01 1.03 3.65.58 3.98 12.88 3.07 44.3 14.79 36.6 12.22 14.22 6.12 4.35 2.65 9.26 5.67 13.08 8.3 13.38 10.59 6.41 8.58 11.72 14.58 5.92 20.96-.98 22.97 29.9-78.48 9.62-8.51 7.55-2.82 44.65 37.35 42.85 53.14 67.02-92.62 24.7-3.83 14.3-7.57 13.98-10.87 10.35-4.68 7.07-2.37 12.69-1.81 9.09-2.97 8.27-2.82 15.39-4.22 37.15-2.12-8.54-62.96-17.77-49.26-6.27-6.18-3.57-3.42-12.18-8.76-22.04-8.25-39.86-10.39-6.06-1.65-6.66-1.85-28.41-7.72-44.86-11.89-16.66-3.82-24.3-8.55-20.69-12.59-30.14-24.75-23.85-22.04-11.81-12.03-18.56-18.85-37.32-31.7-28.87-32.92-24.51-14.82-69.22-40.21-58.33-17.04z" /></g></g></svg>